<svg width="159" height="17" viewBox="0 0 159 17" fill="none" xmlns="http://www.w3.org/2000/svg">
<path d="M0.44301 5.21144C0.156539 4.7315 0.00681859 4.18236 0.0100266 3.62344C-0.0149874 3.39805 0.00692417 3.16992 0.0743881 2.95342C0.141852 2.73691 0.253406 2.53672 0.402025 2.36544C0.539429 2.23518 0.701282 2.13347 0.878252 2.06619C1.05522 1.9989 1.24377 1.96738 1.433 1.97344H11.31C11.5965 2.45337 11.7462 3.00252 11.743 3.56144C11.766 3.78998 11.7432 4.02082 11.6759 4.24043C11.6086 4.46005 11.4981 4.66403 11.351 4.84044C11.2136 4.97069 11.0517 5.0724 10.8748 5.13969C10.6978 5.20697 10.5093 5.2385 10.32 5.23244H7.804V15.7074C7.557 15.7694 7.28801 15.8074 7.02001 15.8514C6.67085 15.8926 6.31958 15.9133 5.968 15.9134C5.65672 15.9169 5.34589 15.8894 5.04003 15.8314C4.79949 15.7912 4.57271 15.6919 4.38002 15.5424C4.19248 15.3998 4.04953 15.2065 3.968 14.9854C3.86989 14.6788 3.82129 14.3584 3.82402 14.0364V5.21144H0.44301Z" fill="#231F20"/>
<path d="M27.0654 15.7494C26.9004 15.7904 26.6535 15.8114 26.3235 15.8734C25.9967 15.9314 25.6653 15.9589 25.3334 15.9554C25.0367 15.956 24.7402 15.9353 24.4464 15.8934C24.202 15.857 23.9691 15.7653 23.7654 15.6254C23.5779 15.4828 23.4349 15.2896 23.3535 15.0684C23.244 14.7791 23.195 14.4704 23.2094 14.1614V1.00443C23.3744 0.983431 23.6214 0.922431 23.9514 0.880431C24.2782 0.82243 24.6096 0.794978 24.9414 0.798431C25.2382 0.797815 25.5346 0.818535 25.8284 0.860431C26.0673 0.893288 26.2942 0.985421 26.4884 1.12843C26.676 1.2711 26.8189 1.46434 26.9004 1.68543C27.0115 1.98164 27.0605 2.2975 27.0444 2.61343L27.0654 15.7494Z" fill="#231F20"/>
<path d="M39.2113 13.7694C39.174 14.3624 38.9582 14.9303 38.5923 15.3984C38.4015 15.5967 38.1699 15.751 37.9134 15.8507C37.657 15.9503 37.3819 15.9929 37.1073 15.9754C36.6507 15.9741 36.2025 15.8531 35.8073 15.6244C35.333 15.3006 34.9208 14.8941 34.5903 14.4244L32.3423 11.6244V15.7484C32.1773 15.7894 31.9303 15.8104 31.6003 15.8724C31.2736 15.9304 30.9421 15.9579 30.6103 15.9544C30.3135 15.955 30.0171 15.9343 29.7233 15.8924C29.4844 15.8596 29.2575 15.7674 29.0633 15.6244C28.8757 15.4818 28.7328 15.2885 28.6513 15.0674C28.5419 14.7781 28.4929 14.4694 28.5073 14.1604V1.02542C28.7513 0.961613 28.9991 0.913514 29.2493 0.881423C29.576 0.823422 29.9074 0.79597 30.2393 0.799423C30.536 0.79881 30.8325 0.81953 31.1263 0.861423C31.3652 0.894281 31.5921 0.986413 31.7863 1.12942C31.9738 1.27209 32.1168 1.46533 32.1983 1.68642C32.3077 1.97577 32.3567 2.28443 32.3423 2.59342V8.57342L36.2423 4.61442C36.9151 4.57347 37.5827 4.75477 38.1423 5.13042C38.3644 5.27145 38.5472 5.46651 38.6734 5.69736C38.7997 5.9282 38.8654 6.1873 38.8643 6.45042C38.8612 6.66052 38.8276 6.86905 38.7643 7.06942C38.6798 7.27975 38.5612 7.4747 38.4133 7.64642C38.2281 7.87288 38.0208 8.08025 37.7943 8.26542C37.5473 8.49242 37.2583 8.73942 36.9283 9.02842L35.6083 10.1624L39.2113 13.7694Z" fill="#231F20"/>
<path d="M21.539 7.87143C21.2745 7.17093 20.859 6.53726 20.322 6.01543C19.7816 5.50172 19.1432 5.10211 18.445 4.84043C17.6673 4.55064 16.8418 4.41084 16.012 4.42843C15.1831 4.42101 14.3593 4.5605 13.579 4.84043C12.877 5.09422 12.2371 5.49479 11.702 6.01543C11.165 6.53726 10.7495 7.17093 10.485 7.87143C10.1966 8.65009 10.05 9.47409 10.052 10.3044C10.0315 11.1431 10.1787 11.9774 10.485 12.7584C10.6649 13.2053 10.9001 13.6279 11.185 14.0164C10.8008 14.8269 10.1439 15.4765 9.32904 15.8514C9.32904 15.8514 11.762 16.6514 13.103 15.5834C13.2554 15.6644 13.4139 15.7333 13.577 15.7894C14.3569 16.071 15.1809 16.2106 16.01 16.2014C16.8371 16.2055 17.6591 16.0731 18.443 15.8094C19.1452 15.5765 19.7859 15.1886 20.3178 14.6745C20.8498 14.1604 21.2593 13.5332 21.516 12.8394C21.8133 12.0399 21.9601 11.1923 21.949 10.3394C21.9853 9.49722 21.8456 8.6567 21.539 7.87143ZM13.231 11.2124C13.0678 11.2124 12.9083 11.164 12.7727 11.0734C12.637 10.9827 12.5313 10.8539 12.4688 10.7031C12.4064 10.5524 12.39 10.3865 12.4219 10.2265C12.4537 10.0664 12.5323 9.91945 12.6477 9.80407C12.7631 9.68869 12.91 9.61012 13.0701 9.57828C13.2301 9.54645 13.396 9.56279 13.5468 9.62523C13.6975 9.68767 13.8263 9.79342 13.917 9.92909C14.0076 10.0648 14.056 10.2243 14.056 10.3874C14.0555 10.6061 13.9684 10.8156 13.8138 10.9702C13.6592 11.1248 13.4497 11.2119 13.231 11.2124ZM16.118 11.2124C15.9549 11.2124 15.7954 11.164 15.6597 11.0734C15.524 10.9827 15.4183 10.8539 15.3558 10.7031C15.2934 10.5524 15.277 10.3865 15.3089 10.2265C15.3407 10.0664 15.4193 9.91945 15.5347 9.80407C15.65 9.68869 15.7971 9.61012 15.9571 9.57828C16.1171 9.54645 16.283 9.56279 16.4337 9.62523C16.5845 9.68767 16.7133 9.79342 16.804 9.92909C16.8946 10.0648 16.943 10.2243 16.943 10.3874C16.9425 10.6061 16.8554 10.8156 16.7008 10.9702C16.5462 11.1248 16.3367 11.2119 16.118 11.2124ZM18.861 11.2124C18.6979 11.2124 18.5384 11.164 18.4027 11.0734C18.267 10.9827 18.1613 10.8539 18.0988 10.7031C18.0364 10.5524 18.02 10.3865 18.0519 10.2265C18.0837 10.0664 18.1623 9.91945 18.2777 9.80407C18.3931 9.68869 18.54 9.61012 18.7001 9.57828C18.8601 9.54645 19.026 9.56279 19.1768 9.62523C19.3275 9.68767 19.4563 9.79342 19.547 9.92909C19.6376 10.0648 19.686 10.2243 19.686 10.3874C19.6855 10.6061 19.5984 10.8156 19.4438 10.9702C19.2892 11.1248 19.0797 11.2119 18.861 11.2124Z" fill="#DE5D83"/>
<path d="M48.5553 8.752C48.5553 7.936 49.2273 7.264 50.0433 7.264C50.8593 7.264 51.5553 7.936 51.5553 8.752C51.5553 9.568 50.8593 10.264 50.0433 10.264C49.2273 10.264 48.5553 9.568 48.5553 8.752Z" fill="#231F20"/>
<g clip-path="url(#clip0_3116_3256)">
<path d="M78.7303 16.917H86.1233V13.623H88.9423V8.759H86.1243V0.213995H85.4193L83.0473 3.09899L85.0193 4.72299L85.2993 4.957L81.8423 9.17099L79.5803 7.30599L76.8903 10.574C76.7035 10.7817 76.5448 11.013 76.4183 11.262C76.3386 11.4129 76.2951 11.5803 76.2913 11.751C76.2968 11.8828 76.3309 12.0117 76.3913 12.129C76.4752 12.2862 76.5828 12.4295 76.7103 12.554C77.2897 13.0649 77.982 13.4312 78.7303 13.623M70.4063 9.061L75.1863 3.499C74.3963 1.157 71.9533 0.022995 68.6473 0.022995C64.1653 0.022995 61.3093 2.66199 61.5733 7.246H66.0813C66.0813 5.54599 66.6813 4.44599 68.6013 4.44599C69.7273 4.44599 70.6153 4.998 70.6153 5.85199C70.6153 7.07599 69.2263 7.752 68.3593 8.274C66.2343 9.549 63.8303 10.823 62.4363 12.786C61.5571 13.9767 61.1278 15.4401 61.2243 16.917H75.6713V14.329H70.4063V9.061Z" fill="#3B3B3B"/>
<path d="M89.0513 0.213989C89.2621 0.212038 89.4687 0.27255 89.6451 0.387893C89.8215 0.503235 89.9598 0.66824 90.0425 0.862092C90.1253 1.05594 90.1487 1.26996 90.11 1.47713C90.0712 1.68431 89.972 1.87537 89.8248 2.0262C89.6776 2.17704 89.489 2.2809 89.2828 2.32468C89.0766 2.36845 88.8621 2.35019 88.6663 2.27218C88.4705 2.19418 88.3022 2.05993 88.1826 1.88638C88.063 1.71282 87.9975 1.50774 87.9943 1.29699C87.9904 1.15657 88.0147 1.0168 88.0656 0.885891C88.1165 0.754978 88.1931 0.635564 88.2908 0.534667C88.3885 0.433771 88.5055 0.353426 88.6347 0.298357C88.7639 0.243287 88.9028 0.214602 89.0433 0.213989H89.0513ZM89.0513 0.400989C88.8259 0.400989 88.6097 0.490543 88.4503 0.649948C88.2908 0.809354 88.2013 1.02556 88.2013 1.25099C88.1946 1.36426 88.2106 1.47774 88.2484 1.58473C88.2862 1.69172 88.3451 1.79005 88.4215 1.87393C88.4979 1.95781 88.5903 2.02554 88.6934 2.07313C88.7964 2.12071 88.9079 2.14718 89.0213 2.15099H89.0513C89.1629 2.15099 89.2734 2.129 89.3766 2.08629C89.4797 2.04357 89.5734 1.98096 89.6523 1.90203C89.7313 1.8231 89.7939 1.7294 89.8366 1.62627C89.8793 1.52314 89.9013 1.41261 89.9013 1.30099C89.908 1.07637 89.8256 0.858214 89.6719 0.694241C89.5182 0.530268 89.3059 0.433819 89.0813 0.425989H89.0513V0.400989ZM88.8433 1.85799H88.6433V0.748989C88.7651 0.725021 88.8891 0.713628 89.0133 0.714989C89.1377 0.703236 89.2623 0.734663 89.3663 0.803989C89.4013 0.83198 89.4294 0.867631 89.4485 0.908199C89.4676 0.948767 89.4771 0.99317 89.4763 1.03799C89.4722 1.09782 89.4496 1.1549 89.4116 1.2013C89.3736 1.24771 89.3221 1.28115 89.2643 1.29699C89.3643 1.33099 89.4173 1.41999 89.4513 1.56499C89.4633 1.66074 89.4907 1.75393 89.5323 1.84099H89.3323C89.2912 1.75595 89.268 1.66336 89.2643 1.56899C89.2343 1.44599 89.1583 1.39099 89.0013 1.39099H88.8403L88.8433 1.85799ZM88.8433 1.22499H88.9793C89.1323 1.22499 89.2723 1.18699 89.2723 1.05499C89.2723 0.922989 89.2043 0.871989 89.0003 0.871989C88.948 0.86776 88.8955 0.86776 88.8433 0.871989V1.22499Z" fill="#3B3B3B"/>
<path d="M75.7473 12.459C75.6294 12.241 75.5682 11.9968 75.5693 11.749C75.5759 11.4708 75.6442 11.1976 75.7693 10.949C75.9216 10.6412 76.1147 10.3553 76.3433 10.099L79.4873 6.275L81.7523 8.136L84.2973 5.052L82.0453 3.196L84.4963 0.222H78.9723L71.1333 9.328V13.62H76.9133C76.6542 13.4583 76.4134 13.2688 76.1953 13.055C76.0173 12.881 75.8656 12.6819 75.7453 12.464" fill="#3562E3"/>
<path d="M134.414 5.47398H132.302V16.759H134.414V5.47398Z" fill="#3B3B3B"/>
<path d="M96.9162 6.10298V8.27898H98.9572V9.87898H96.9172V13.618C96.9172 14.663 97.1972 15.186 98.0172 15.186C98.3035 15.2011 98.5903 15.1711 98.8672 15.097L98.9012 16.716C98.3999 16.8817 97.8742 16.9622 97.3462 16.954C97.0072 16.9708 96.6684 16.9174 96.351 16.7969C96.0337 16.6764 95.7447 16.4916 95.5022 16.254C94.9776 15.5747 94.7341 14.7197 94.8222 13.866V6.69298L96.9162 6.10298Z" fill="#3B3B3B"/>
<path d="M100.532 10.998C100.532 9.84699 100.532 9.01399 100.464 8.26199H102.308L102.397 9.86199H102.439C102.601 9.26434 102.985 8.75103 103.512 8.42718C104.04 8.10332 104.671 7.99342 105.277 8.11999V10.147C105.065 10.1052 104.848 10.0867 104.631 10.092C104.169 10.0802 103.718 10.2392 103.365 10.5386C103.013 10.838 102.783 11.2568 102.719 11.715C102.683 11.9227 102.664 12.1331 102.664 12.344V16.759H100.54L100.532 10.998Z" fill="#3B3B3B"/>
<path d="M110.985 12.617C109.468 12.617 108.011 12.91 108.011 14.202C107.985 14.4994 108.079 14.7949 108.271 15.0235C108.463 15.2521 108.738 15.3951 109.035 15.421C109.102 15.4291 109.169 15.4291 109.235 15.421C109.606 15.4321 109.971 15.3248 110.276 15.1148C110.582 14.9048 110.813 14.603 110.935 14.253C110.981 14.1001 111 13.9403 110.99 13.781L110.985 12.617ZM113.071 14.742C113.058 15.4231 113.105 16.104 113.211 16.777H111.278L111.121 15.838H111.07C110.768 16.2072 110.384 16.5017 109.949 16.6984C109.515 16.8951 109.04 16.9887 108.563 16.972C107.896 17.0102 107.241 16.7819 106.742 16.3373C106.243 15.8927 105.942 15.2681 105.903 14.601V14.423C105.903 12.298 107.803 11.202 110.934 11.223V11.074C110.934 10.517 110.709 9.59499 109.234 9.59499C108.428 9.59621 107.638 9.81341 106.944 10.224L106.519 8.83499C107.459 8.32244 108.517 8.06846 109.587 8.09899C112.302 8.09899 113.087 9.82399 113.087 11.685L113.071 14.742Z" fill="#3B3B3B"/>
<path d="M115.25 10.806C115.25 9.82898 115.216 9.00598 115.178 8.27798H117.043L117.143 9.55298H117.198C117.485 9.09425 117.887 8.71851 118.363 8.46309C118.84 8.20766 119.376 8.08145 119.916 8.09698C121.399 8.09698 122.929 9.05698 122.929 11.738V16.76H120.804V11.971C120.804 10.752 120.349 9.84598 119.185 9.84598C118.811 9.85439 118.448 9.97943 118.148 10.2037C117.848 10.4279 117.625 10.7402 117.511 11.097C117.44 11.3165 117.406 11.5463 117.411 11.777V16.757H115.287L115.25 10.806Z" fill="#3B3B3B"/>
<path d="M125.031 14.775C125.689 15.1572 126.43 15.3731 127.19 15.404C128.133 15.404 128.55 14.979 128.55 14.444C128.55 13.909 128.206 13.594 127.161 13.208C125.504 12.651 124.824 11.746 124.824 10.735C124.824 9.23499 126.06 8.08799 128.024 8.08799C128.809 8.07114 129.586 8.24477 130.289 8.59399L129.864 10.094C129.317 9.78443 128.7 9.61796 128.071 9.60999C127.302 9.60999 126.886 9.99199 126.886 10.515C126.886 11.038 127.286 11.297 128.365 11.7C129.916 12.24 130.613 13.021 130.63 14.279C130.63 15.826 129.43 16.939 127.184 16.939C126.289 16.9554 125.404 16.7525 124.605 16.348L125.031 14.775Z" fill="#3B3B3B"/>
<path d="M141.153 12.616C139.636 12.616 138.179 12.909 138.179 14.201C138.153 14.4984 138.247 14.7939 138.439 15.0225C138.631 15.2511 138.906 15.3941 139.203 15.42C139.27 15.4282 139.337 15.4282 139.403 15.42C139.774 15.4311 140.138 15.3238 140.444 15.1138C140.75 14.9038 140.981 14.602 141.103 14.252C141.149 14.0991 141.168 13.9393 141.158 13.78L141.153 12.616ZM143.244 14.741C143.229 15.4222 143.276 16.1033 143.384 16.776H141.446L141.293 15.837H141.238C140.936 16.2062 140.552 16.5007 140.117 16.6974C139.683 16.8941 139.208 16.9877 138.731 16.971C138.064 17.0092 137.409 16.7809 136.91 16.3363C136.411 15.8917 136.11 15.2671 136.071 14.6V14.422C136.071 12.297 137.971 11.201 141.102 11.222V11.073C141.102 10.516 140.877 9.59399 139.402 9.59399C138.598 9.59554 137.808 9.81274 137.116 10.223L136.691 8.83399C137.629 8.32135 138.687 8.06767 139.755 8.09899C142.47 8.09899 143.255 9.82399 143.255 11.685L143.244 14.741Z" fill="#3B3B3B"/>
<path d="M147.395 6.10298V8.27898H149.43V9.87898H147.395V13.618C147.395 14.659 147.671 15.182 148.495 15.182C148.781 15.1963 149.068 15.1676 149.345 15.097L149.379 16.716C148.879 16.8777 148.354 16.9538 147.828 16.941C147.489 16.9589 147.15 16.9059 146.832 16.7853C146.515 16.6648 146.226 16.4794 145.984 16.241C145.459 15.5633 145.216 14.7095 145.304 13.857V6.69298L147.395 6.10298Z" fill="#3B3B3B"/>
<path d="M156.101 11.622C156.136 11.368 156.118 11.1095 156.046 10.8633C155.974 10.6172 155.851 10.3889 155.685 10.1936C155.519 9.99826 155.314 9.84021 155.082 9.72981C154.851 9.61942 154.599 9.55915 154.342 9.55298C153.813 9.58462 153.316 9.8158 152.951 10.1998C152.586 10.5839 152.38 11.0921 152.375 11.622H156.101ZM152.375 13.122C152.426 14.652 153.628 15.315 154.988 15.315C155.788 15.3268 156.583 15.1975 157.338 14.933L157.652 16.399C156.715 16.7732 155.713 16.9594 154.703 16.947C154.124 16.9995 153.539 16.9255 152.991 16.7301C152.443 16.5348 151.944 16.2226 151.528 15.8153C151.112 15.408 150.79 14.9153 150.583 14.3712C150.377 13.8271 150.291 13.2446 150.331 12.664C150.331 10.314 151.763 8.10098 154.478 8.10098C157.193 8.10098 158.136 10.366 158.136 12.227C158.14 12.5315 158.116 12.8358 158.064 13.136L152.375 13.122Z" fill="#3B3B3B"/>
</g>
<defs>
<clipPath id="clip0_3116_3256">
<rect width="96.925" height="16.954" fill="white" transform="translate(61.2113 0.022995)"/>
</clipPath>
</defs>
</svg>
